# xmcd
# 
# Track frame offsets:
#     182
#     54632
#     86057
#     106307
# 
# Disc length: 2811
# 
# Revision: 24
# Processed by: cddbd v1.5.2PL0 Copyright (c) Steve Scherf et al.
# Submitted via: fre:ac v1.0.31
# 
DISCID=2d0af904
DTITLE=Chick Corea - Return To Forever
DYEAR=1972
DGENRE=Jazz
TTITLE0=Chick Corea, Joe Farrell, Flora Purim, Stan Clarke, Airto Moreira - Return to Forever
TTITLE1=Chick Corea, Joe Farrell, Flora Purim, Stan Clarke, Airto Moreira - Crystal Silence
TTITLE2=Chick Corea, Joe Farrell, Flora Purim, Stan Clarke, Airto Moreira - What Game Shall We Play Today
TTITLE3=Chick Corea, Joe Farrell, Flora Purim, Stan Clarke, Airto Moreira - Sometime Ago_La Fiesta
EXTD=YEAR: 1972
EXTT0=
EXTT1=
EXTT2=
EXTT3=
PLAYORDER=
